<?xml version="1.0" encoding="UTF-8" standalone="no"?>
<!-- Created with Inkscape (http://www.inkscape.org/) -->

<svg
   version="1.1"
   id="svg2"
   xml:space="preserve"
   width="483.77954"
   height="332.59842"
   viewBox="0 0 483.77954 332.59842"
   sodipodi:docname="TRIPLE.pdf"
   inkscape:version="1.1.2 (b8e25be833, 2022-02-05)"
   xmlns:inkscape="http://www.inkscape.org/namespaces/inkscape"
   xmlns:sodipodi="http://sodipodi.sourceforge.net/DTD/sodipodi-0.dtd"
   xmlns="http://www.w3.org/2000/svg"
   xmlns:svg="http://www.w3.org/2000/svg"><defs
     id="defs6"><clipPath
       clipPathUnits="userSpaceOnUse"
       id="clipPath18"><path
         d="M 0,0 H 363 V 250 H 0 Z"
         id="path16" /></clipPath><clipPath
       clipPathUnits="userSpaceOnUse"
       id="clipPath36"><path
         d="M 0,0 H 363 V 250 H 0 Z"
         id="path34" /></clipPath><clipPath
       clipPathUnits="userSpaceOnUse"
       id="clipPath52"><path
         d="M 0,0 H 363 V 250 H 0 Z"
         id="path50" /></clipPath><clipPath
       clipPathUnits="userSpaceOnUse"
       id="clipPath178"><path
         d="M 0,0 H 363 V 250 H 0 Z"
         id="path176" /></clipPath><clipPath
       clipPathUnits="userSpaceOnUse"
       id="clipPath198"><path
         d="M 0,0 H 363 V 250 H 0 Z"
         id="path196" /></clipPath><clipPath
       clipPathUnits="userSpaceOnUse"
       id="clipPath218"><path
         d="M 0,0 H 363 V 250 H 0 Z"
         id="path216" /></clipPath><clipPath
       clipPathUnits="userSpaceOnUse"
       id="clipPath262"><path
         d="M 0,0 H 363 V 250 H 0 Z"
         id="path260" /></clipPath><clipPath
       clipPathUnits="userSpaceOnUse"
       id="clipPath282"><path
         d="M 0,0 H 363 V 250 H 0 Z"
         id="path280" /></clipPath><clipPath
       clipPathUnits="userSpaceOnUse"
       id="clipPath302"><path
         d="M 0,0 H 363 V 250 H 0 Z"
         id="path300" /></clipPath><clipPath
       clipPathUnits="userSpaceOnUse"
       id="clipPath364"><path
         d="M 0,0 H 363 V 250 H 0 Z"
         id="path362" /></clipPath><clipPath
       clipPathUnits="userSpaceOnUse"
       id="clipPath392"><path
         d="M 0,0 H 363 V 250 H 0 Z"
         id="path390" /></clipPath><clipPath
       clipPathUnits="userSpaceOnUse"
       id="clipPath410"><path
         d="M 0,0 H 363 V 250 H 0 Z"
         id="path408" /></clipPath></defs><sodipodi:namedview
     id="namedview4"
     pagecolor="#505050"
     bordercolor="#eeeeee"
     borderopacity="1"
     inkscape:pageshadow="0"
     inkscape:pageopacity="0"
     inkscape:pagecheckerboard="0"
     showgrid="false"
     inkscape:zoom="2.1888258"
     inkscape:cx="241.68209"
     inkscape:cy="166.29921"
     inkscape:window-width="1920"
     inkscape:window-height="1009"
     inkscape:window-x="-1928"
     inkscape:window-y="225"
     inkscape:window-maximized="1"
     inkscape:current-layer="g8" /><g
     id="g8"
     inkscape:groupmode="layer"
     inkscape:label="TRIPLE"
     transform="matrix(1.3333333,0,0,1.3333333,0,8.9816274e-6)"><g
       id="g10"><g
         id="g12"><g
           id="g14" /><g
           id="g28"><g
             clip-path="url(#clipPath18)"
             opacity="0.97"
             id="g26"><g
               id="g24"><g
                 id="g22"><path
                   d="M 28.348,45.355 H 340.157 V 243.781 H 28.348 Z"
                   style="fill:#a8a8a8;fill-opacity:1;fill-rule:nonzero;stroke:#bfbfbf;stroke-width:2.83465;stroke-linecap:round;stroke-linejoin:round;stroke-miterlimit:4;stroke-dasharray:none;stroke-opacity:1"
                   id="path20" /></g></g></g></g></g><g
         id="g30"><g
           id="g32" /><g
           id="g44"><g
             clip-path="url(#clipPath36)"
             opacity="0.97"
             id="g42"><g
               id="g40"><path
                 d="M 45.355,45.355 H 323.148 V 158.738 H 45.355 Z"
                 style="fill:#ff6502;fill-opacity:0.501416;fill-rule:nonzero;stroke:none"
                 id="path38" /></g></g></g></g><g
         id="g46"><g
           id="g48" /><g
           id="g60"><g
             clip-path="url(#clipPath52)"
             opacity="0.97"
             id="g58"><g
               id="g56"><path
                 d="m 198.426,45.355 h 119.055 v 79.367 H 198.426 Z"
                 style="fill:#a8a8a8;fill-opacity:1;fill-rule:nonzero;stroke:none"
                 id="path54" /></g></g></g></g><path
         d="m 110.547,3.5 c 2.051,0 3.547,0.406 4.484,1.219 0.938,0.804 1.407,1.933 1.407,3.39 0,0.868 -0.2,1.68 -0.594,2.438 -0.387,0.75 -1.039,1.367 -1.953,1.844 -0.918,0.468 -2.157,0.703 -3.719,0.703 h -1.813 v 6.109 h -1.968 V 3.5 Z m -0.188,1.688 h -2 v 6.203 h 1.594 c 1.488,0 2.598,-0.239 3.328,-0.719 0.739,-0.488 1.11,-1.313 1.11,-2.469 0,-1.008 -0.329,-1.765 -0.985,-2.265 -0.648,-0.5 -1.664,-0.75 -3.047,-0.75 z"
         style="fill:#000000;fill-opacity:1;fill-rule:nonzero;stroke:none"
         id="path62" /><path
         d="M 126.625,19.203 121.453,5.438 h -0.078 c 0.039,0.449 0.07,1.058 0.094,1.828 0.031,0.773 0.047,1.574 0.047,2.406 v 9.531 h -1.813 V 3.5 h 2.922 l 4.844,12.859 h 0.078 L 132.484,3.5 h 2.891 v 15.703 h -1.953 V 9.547 c 0,-0.758 0.016,-1.516 0.047,-2.266 0.039,-0.75 0.078,-1.359 0.109,-1.828 h -0.094 l -5.234,13.75 z"
         style="fill:#000000;fill-opacity:1;fill-rule:nonzero;stroke:none"
         id="path64" /><path
         d="m 153.359,11.328 c 0,1.625 -0.277,3.047 -0.828,4.266 -0.554,1.211 -1.371,2.152 -2.453,2.828 -1.074,0.668 -2.39,1 -3.953,1 -1.637,0 -2.996,-0.332 -4.078,-1 -1.074,-0.676 -1.875,-1.625 -2.406,-2.844 -0.524,-1.219 -0.782,-2.64 -0.782,-4.266 0,-1.601 0.258,-3.007 0.782,-4.218 0.531,-1.207 1.332,-2.149 2.406,-2.828 1.082,-0.676 2.445,-1.016 4.094,-1.016 1.57,0 2.89,0.336 3.953,1 1.07,0.668 1.883,1.609 2.437,2.828 0.551,1.211 0.828,2.625 0.828,4.25 z m -12.406,0 c 0,1.981 0.414,3.539 1.25,4.672 0.832,1.137 2.141,1.703 3.922,1.703 1.77,0 3.066,-0.566 3.891,-1.703 0.832,-1.133 1.25,-2.691 1.25,-4.672 0,-1.976 -0.414,-3.531 -1.235,-4.656 -0.824,-1.125 -2.121,-1.688 -3.89,-1.688 -1.793,0 -3.106,0.563 -3.938,1.688 -0.836,1.125 -1.25,2.68 -1.25,4.656 z"
         style="fill:#000000;fill-opacity:1;fill-rule:nonzero;stroke:none"
         id="path66" /><path
         d="m 165.742,15 c 0,1.398 -0.508,2.484 -1.515,3.266 -1.012,0.773 -2.375,1.156 -4.094,1.156 -0.887,0 -1.703,-0.07 -2.453,-0.203 -0.742,-0.125 -1.36,-0.305 -1.86,-0.547 v -1.891 c 0.52,0.242 1.172,0.453 1.953,0.641 0.789,0.187 1.602,0.281 2.438,0.281 1.164,0 2.047,-0.223 2.641,-0.672 0.601,-0.457 0.906,-1.078 0.906,-1.859 0,-0.508 -0.11,-0.942 -0.328,-1.297 -0.219,-0.352 -0.602,-0.676 -1.141,-0.969 -0.543,-0.289 -1.281,-0.613 -2.219,-0.968 -1.355,-0.477 -2.371,-1.067 -3.047,-1.766 -0.679,-0.707 -1.015,-1.672 -1.015,-2.891 0,-0.82 0.211,-1.531 0.64,-2.125 0.426,-0.601 1.016,-1.066 1.766,-1.39 0.75,-0.321 1.625,-0.485 2.625,-0.485 0.844,0 1.625,0.086 2.344,0.25 0.719,0.157 1.379,0.367 1.984,0.625 l -0.625,1.688 c -0.543,-0.227 -1.137,-0.422 -1.781,-0.578 -0.649,-0.164 -1.305,-0.25 -1.969,-0.25 -0.992,0 -1.734,0.211 -2.234,0.625 -0.492,0.418 -0.735,0.968 -0.735,1.656 0,0.531 0.11,0.976 0.329,1.328 0.218,0.355 0.578,0.672 1.078,0.953 0.5,0.281 1.172,0.578 2.015,0.891 0.926,0.336 1.707,0.699 2.344,1.093 0.633,0.387 1.117,0.852 1.453,1.391 0.332,0.543 0.5,1.227 0.5,2.047 z"
         style="fill:#000000;fill-opacity:1;fill-rule:nonzero;stroke:none"
         id="path68" /><path
         d="M 15.484,21.914 10.891,34.773 H 9.281 L 4.688,21.914 h 1.687 l 2.906,8.25 c 0.188,0.531 0.344,1.027 0.469,1.484 0.125,0.461 0.238,0.903 0.344,1.329 0.082,-0.426 0.187,-0.868 0.312,-1.329 0.133,-0.468 0.297,-0.972 0.485,-1.515 l 2.89,-8.219 z"
         style="fill:#000000;fill-opacity:1;fill-rule:nonzero;stroke:none"
         id="path70" /><path
         d="m 27.531,28.227 c 0,2.168 -0.593,3.804 -1.781,4.906 -1.18,1.094 -2.824,1.64 -4.938,1.64 H 17.234 V 21.914 h 3.954 c 1.281,0 2.398,0.246 3.359,0.734 0.957,0.481 1.691,1.188 2.203,2.125 0.52,0.93 0.781,2.079 0.781,3.454 z m -1.719,0.046 c 0,-1.718 -0.421,-2.972 -1.265,-3.765 -0.844,-0.801 -2.043,-1.203 -3.594,-1.203 h -2.109 v 10.078 h 1.75 c 3.476,0 5.218,-1.703 5.218,-5.11 z"
         style="fill:#000000;fill-opacity:1;fill-rule:nonzero;stroke:none"
         id="path72" /><path
         d="m 40.672,28.227 c 0,2.168 -0.594,3.804 -1.781,4.906 -1.18,1.094 -2.825,1.64 -4.938,1.64 H 30.375 V 21.914 h 3.953 c 1.281,0 2.399,0.246 3.36,0.734 0.957,0.481 1.691,1.188 2.203,2.125 0.519,0.93 0.781,2.079 0.781,3.454 z m -1.719,0.046 c 0,-1.718 -0.422,-2.972 -1.265,-3.765 -0.844,-0.801 -2.043,-1.203 -3.594,-1.203 h -2.11 v 10.078 h 1.75 c 3.477,0 5.219,-1.703 5.219,-5.11 z"
         style="fill:#000000;fill-opacity:1;fill-rule:nonzero;stroke:none"
         id="path74" /><path
         d="m 327.523,27.992 h 4.438 v 6.297 c -0.688,0.231 -1.387,0.399 -2.094,0.5 -0.711,0.113 -1.515,0.172 -2.422,0.172 -1.336,0 -2.461,-0.266 -3.375,-0.797 -0.906,-0.539 -1.601,-1.305 -2.078,-2.297 -0.469,-0.988 -0.703,-2.16 -0.703,-3.515 0,-1.332 0.258,-2.493 0.781,-3.485 0.52,-0.988 1.282,-1.754 2.282,-2.297 1,-0.55 2.203,-0.828 3.609,-0.828 0.719,0 1.394,0.07 2.031,0.203 0.645,0.125 1.242,0.309 1.797,0.547 l -0.609,1.406 c -0.461,-0.187 -0.977,-0.351 -1.547,-0.5 -0.563,-0.156 -1.153,-0.234 -1.766,-0.234 -1.543,0 -2.742,0.469 -3.594,1.406 -0.855,0.93 -1.281,2.188 -1.281,3.782 0,1.023 0.16,1.929 0.485,2.718 0.332,0.782 0.851,1.391 1.562,1.828 0.707,0.438 1.633,0.657 2.781,0.657 0.571,0 1.055,-0.032 1.453,-0.094 0.395,-0.063 0.754,-0.133 1.079,-0.219 V 29.43 h -2.829 z"
         style="fill:#000000;fill-opacity:1;fill-rule:nonzero;stroke:none"
         id="path76" /><path
         d="m 345.238,34.773 h -1.89 l -6.875,-10.671 h -0.078 c 0.019,0.418 0.046,0.937 0.078,1.562 0.039,0.625 0.062,1.266 0.062,1.922 v 7.187 h -1.484 V 21.914 h 1.875 l 6.844,10.641 h 0.078 c -0.012,-0.188 -0.028,-0.473 -0.047,-0.86 -0.024,-0.383 -0.043,-0.8 -0.063,-1.25 -0.011,-0.445 -0.015,-0.867 -0.015,-1.265 v -7.266 h 1.515 z"
         style="fill:#000000;fill-opacity:1;fill-rule:nonzero;stroke:none"
         id="path78" /><path
         d="m 359.027,28.227 c 0,2.168 -0.593,3.804 -1.781,4.906 -1.18,1.094 -2.824,1.64 -4.937,1.64 H 348.73 V 21.914 h 3.954 c 1.281,0 2.398,0.246 3.359,0.734 0.957,0.481 1.691,1.188 2.203,2.125 0.52,0.93 0.781,2.079 0.781,3.454 z m -1.718,0.046 c 0,-1.718 -0.422,-2.972 -1.266,-3.765 -0.844,-0.801 -2.043,-1.203 -3.594,-1.203 h -2.109 v 10.078 h 1.75 c 3.476,0 5.219,-1.703 5.219,-5.11 z"
         style="fill:#000000;fill-opacity:1;fill-rule:nonzero;stroke:none"
         id="path80" /><path
         d="m 50.645,175.816 h -6.391 v -11.421 h 6.391 v 1.265 h -4.954 v 3.563 h 4.657 v 1.25 h -4.657 v 4.078 h 4.954 z"
         style="fill:#0046e7;fill-opacity:1;fill-rule:nonzero;stroke:none"
         id="path82" /><path
         d="m 56.184,164.395 c 1.488,0 2.57,0.296 3.25,0.89 0.687,0.586 1.031,1.406 1.031,2.469 0,0.625 -0.141,1.215 -0.422,1.766 -0.281,0.554 -0.758,1 -1.422,1.343 -0.668,0.336 -1.574,0.5 -2.719,0.5 H 54.59 v 4.453 h -1.438 v -11.421 z m -0.125,1.234 H 54.59 v 4.5 h 1.156 c 1.094,0 1.906,-0.172 2.438,-0.516 0.531,-0.351 0.796,-0.953 0.796,-1.797 0,-0.738 -0.242,-1.285 -0.718,-1.64 -0.469,-0.364 -1.203,-0.547 -2.203,-0.547 z"
         style="fill:#0046e7;fill-opacity:1;fill-rule:nonzero;stroke:none"
         id="path84" /><path
         d="m 66.051,175.816 h -4.125 v -0.828 l 1.344,-0.312 v -9.125 l -1.344,-0.328 v -0.828 h 4.125 v 0.828 l -1.344,0.328 v 9.125 l 1.344,0.312 z"
         style="fill:#0046e7;fill-opacity:1;fill-rule:nonzero;stroke:none"
         id="path86" /><path
         d="M 71.879,175.816 H 70.441 V 165.66 h -3.578 v -1.265 h 8.563 v 1.265 h -3.547 z"
         style="fill:#0046e7;fill-opacity:1;fill-rule:nonzero;stroke:none"
         id="path88" /><path
         d="m 83.203,175.816 -1.375,-3.531 h -4.531 l -1.359,3.531 h -1.454 l 4.469,-11.468 h 1.297 l 4.438,11.468 z m -1.812,-4.812 -1.282,-3.453 c -0.031,-0.094 -0.086,-0.25 -0.156,-0.469 -0.074,-0.227 -0.148,-0.461 -0.219,-0.703 -0.062,-0.238 -0.117,-0.422 -0.156,-0.547 -0.094,0.336 -0.187,0.656 -0.281,0.969 -0.086,0.312 -0.156,0.562 -0.219,0.75 l -1.297,3.453 z"
         style="fill:#0046e7;fill-opacity:1;fill-rule:nonzero;stroke:none"
         id="path90" /><path
         d="m 94.02,175.816 h -1.625 l -3.032,-4.953 -3.078,4.953 H 84.77 l 3.796,-5.953 -3.562,-5.468 h 1.609 l 2.797,4.484 2.813,-4.484 h 1.531 l -3.547,5.437 z"
         style="fill:#0046e7;fill-opacity:1;fill-rule:nonzero;stroke:none"
         id="path92" /><path
         d="m 98.617,170.004 2.969,-5.609 h 1.562 l -3.812,6.984 v 4.437 h -1.438 v -4.375 l -3.812,-7.046 h 1.562 z"
         style="fill:#0046e7;fill-opacity:1;fill-rule:nonzero;stroke:none"
         id="path94" /><path
         d="m 166.742,178.648 h -3.062 l -4.985,-8.64 h -0.062 c 0.019,0.543 0.039,1.09 0.062,1.64 0.032,0.543 0.055,1.086 0.078,1.625 v 5.375 h -2.156 v -11.421 h 3.063 l 4.953,8.562 h 0.047 c -0.024,-0.519 -0.043,-1.039 -0.063,-1.562 -0.023,-0.532 -0.039,-1.063 -0.047,-1.594 v -5.406 h 2.172 z"
         style="fill:#ffffff;fill-opacity:1;fill-rule:nonzero;stroke:none"
         id="path96" /><path
         d="m 178.25,174.41 -1.891,7.438 h -1.797 l -1,-3.907 c -0.023,-0.07 -0.046,-0.179 -0.078,-0.328 -0.031,-0.156 -0.07,-0.32 -0.109,-0.5 -0.043,-0.187 -0.078,-0.359 -0.109,-0.515 -0.032,-0.164 -0.047,-0.297 -0.047,-0.391 -0.012,0.094 -0.031,0.227 -0.063,0.391 -0.031,0.156 -0.07,0.324 -0.109,0.5 -0.031,0.179 -0.063,0.343 -0.094,0.5 -0.031,0.156 -0.058,0.277 -0.078,0.359 l -1,3.891 h -1.797 l -1.89,-7.438 h 1.546 l 0.954,4.063 c 0.039,0.168 0.082,0.371 0.124,0.609 0.051,0.242 0.098,0.484 0.141,0.734 0.039,0.243 0.07,0.446 0.094,0.61 0.019,-0.176 0.051,-0.383 0.094,-0.625 0.039,-0.239 0.082,-0.469 0.125,-0.688 0.05,-0.226 0.093,-0.406 0.125,-0.531 l 1.078,-4.172 h 1.5 l 1.078,4.172 c 0.031,0.125 0.066,0.305 0.109,0.531 0.051,0.219 0.098,0.453 0.141,0.703 0.039,0.243 0.07,0.446 0.094,0.61 0.019,-0.176 0.05,-0.383 0.093,-0.625 0.039,-0.239 0.086,-0.477 0.141,-0.719 0.051,-0.238 0.094,-0.441 0.125,-0.609 l 0.953,-4.063 z"
         style="fill:#ffffff;fill-opacity:1;fill-rule:nonzero;stroke:none"
         id="path98" /><path
         d="m 183.465,181.848 h -4.281 v -7.438 h 4.281 v 1.297 h -2.703 v 1.641 h 2.515 v 1.281 h -2.515 v 1.922 h 2.703 z"
         style="fill:#ffffff;fill-opacity:1;fill-rule:nonzero;stroke:none"
         id="path100" /><path
         d="m 185.008,181.848 v -7.438 h 1.578 v 6.141 h 3.016 v 1.297 z"
         style="fill:#ffffff;fill-opacity:1;fill-rule:nonzero;stroke:none"
         id="path102" /><path
         d="m 190.883,181.848 v -7.438 h 1.578 v 6.141 h 3.016 v 1.297 z"
         style="fill:#ffffff;fill-opacity:1;fill-rule:nonzero;stroke:none"
         id="path104" /><path
         d="m 160.605,189.621 c 0,1.938 -0.554,3.399 -1.656,4.375 -1.094,0.969 -2.621,1.453 -4.578,1.453 h -3.234 v -11.422 h 3.593 c 1.188,0 2.219,0.215 3.094,0.641 0.883,0.43 1.567,1.059 2.047,1.891 0.488,0.836 0.734,1.855 0.734,3.062 z m -2.5,0.063 c 0,-1.25 -0.281,-2.172 -0.843,-2.766 -0.555,-0.602 -1.356,-0.906 -2.407,-0.906 h -1.296 v 7.437 h 1.031 c 2.344,0 3.515,-1.254 3.515,-3.765 z"
         style="fill:#ffffff;fill-opacity:1;fill-rule:nonzero;stroke:none"
         id="path106" /><path
         d="m 167.258,195.449 h -5.203 v -1.375 l 1.39,-0.64 v -7.391 l -1.39,-0.641 v -1.375 h 5.203 v 1.375 l -1.406,0.641 v 7.391 l 1.406,0.64 z"
         style="fill:#ffffff;fill-opacity:1;fill-rule:nonzero;stroke:none"
         id="path108" /><path
         d="m 179.578,189.715 c 0,1.187 -0.199,2.226 -0.594,3.109 -0.386,0.875 -0.984,1.559 -1.796,2.047 -0.805,0.492 -1.821,0.734 -3.047,0.734 -1.243,0 -2.266,-0.242 -3.079,-0.734 -0.804,-0.488 -1.402,-1.176 -1.796,-2.062 -0.387,-0.883 -0.578,-1.922 -0.578,-3.11 0,-1.176 0.191,-2.203 0.578,-3.078 0.394,-0.875 0.992,-1.551 1.796,-2.031 0.813,-0.488 1.844,-0.735 3.094,-0.735 1.227,0 2.242,0.247 3.047,0.735 0.801,0.48 1.395,1.164 1.781,2.047 0.395,0.875 0.594,1.902 0.594,3.078 z m -8.344,0 c 0,1.199 0.227,2.14 0.688,2.828 0.457,0.687 1.195,1.031 2.219,1.031 1.031,0 1.769,-0.344 2.218,-1.031 0.446,-0.688 0.672,-1.629 0.672,-2.828 0,-1.188 -0.226,-2.125 -0.672,-2.813 -0.449,-0.687 -1.183,-1.031 -2.203,-1.031 -1.031,0 -1.777,0.344 -2.234,1.031 -0.461,0.688 -0.688,1.625 -0.688,2.813 z"
         style="fill:#ffffff;fill-opacity:1;fill-rule:nonzero;stroke:none"
         id="path110" /><path
         d="m 191.406,189.621 c 0,1.938 -0.554,3.399 -1.656,4.375 -1.094,0.969 -2.621,1.453 -4.578,1.453 h -3.234 v -11.422 h 3.593 c 1.188,0 2.219,0.215 3.094,0.641 0.883,0.43 1.566,1.059 2.047,1.891 0.488,0.836 0.734,1.855 0.734,3.062 z m -2.5,0.063 c 0,-1.25 -0.281,-2.172 -0.844,-2.766 -0.554,-0.602 -1.355,-0.906 -2.406,-0.906 h -1.297 v 7.437 h 1.032 c 2.343,0 3.515,-1.254 3.515,-3.765 z"
         style="fill:#ffffff;fill-opacity:1;fill-rule:nonzero;stroke:none"
         id="path112" /><path
         d="m 200.355,195.449 h -6.578 v -11.422 h 6.578 v 1.985 h -4.156 v 2.515 h 3.875 v 1.985 h -3.875 v 2.937 h 4.156 z"
         style="fill:#ffffff;fill-opacity:1;fill-rule:nonzero;stroke:none"
         id="path114" /><path
         d="m 218.445,127.543 c 1.469,0 2.539,0.32 3.219,0.953 0.676,0.637 1.016,1.508 1.016,2.609 0,0.68 -0.141,1.305 -0.422,1.875 -0.274,0.575 -0.731,1.04 -1.375,1.391 -0.649,0.356 -1.528,0.531 -2.641,0.531 h -1.031 v 4.063 h -2.422 v -11.422 z m -0.14,1.984 h -1.094 v 3.391 h 0.797 c 0.687,0 1.226,-0.133 1.625,-0.406 0.394,-0.27 0.594,-0.711 0.594,-1.328 0,-1.102 -0.641,-1.657 -1.922,-1.657 z"
         style="fill:#ffffff;fill-opacity:1;fill-rule:nonzero;stroke:none"
         id="path116" /><path
         d="m 233.465,134.727 -1.891,7.437 h -1.797 l -1,-3.906 c -0.023,-0.07 -0.047,-0.18 -0.078,-0.328 -0.031,-0.157 -0.07,-0.321 -0.109,-0.5 -0.043,-0.188 -0.078,-0.36 -0.11,-0.516 -0.031,-0.164 -0.046,-0.297 -0.046,-0.391 -0.012,0.094 -0.032,0.227 -0.063,0.391 -0.031,0.156 -0.07,0.324 -0.109,0.5 -0.032,0.18 -0.063,0.344 -0.094,0.5 -0.031,0.156 -0.059,0.277 -0.078,0.359 l -1,3.891 h -1.797 l -1.891,-7.437 h 1.547 l 0.953,4.062 c 0.039,0.168 0.082,0.371 0.125,0.609 0.051,0.243 0.098,0.485 0.141,0.735 0.039,0.242 0.07,0.445 0.094,0.609 0.019,-0.176 0.05,-0.383 0.093,-0.625 0.04,-0.238 0.083,-0.469 0.125,-0.687 0.051,-0.227 0.094,-0.407 0.125,-0.532 l 1.079,-4.171 h 1.5 l 1.078,4.171 c 0.031,0.125 0.066,0.305 0.109,0.532 0.051,0.218 0.098,0.453 0.141,0.703 0.039,0.242 0.07,0.445 0.093,0.609 0.02,-0.176 0.051,-0.383 0.094,-0.625 0.039,-0.238 0.086,-0.476 0.141,-0.719 0.051,-0.238 0.094,-0.441 0.125,-0.609 l 0.953,-4.062 z"
         style="fill:#ffffff;fill-opacity:1;fill-rule:nonzero;stroke:none"
         id="path118" /><path
         d="m 238.676,142.164 h -4.281 v -7.437 h 4.281 v 1.296 h -2.703 v 1.641 h 2.515 v 1.281 h -2.515 v 1.922 h 2.703 z"
         style="fill:#ffffff;fill-opacity:1;fill-rule:nonzero;stroke:none"
         id="path120" /><path
         d="m 240.219,142.164 v -7.437 h 1.578 v 6.14 h 3.015 v 1.297 z"
         style="fill:#ffffff;fill-opacity:1;fill-rule:nonzero;stroke:none"
         id="path122" /><path
         d="m 246.094,142.164 v -7.437 h 1.578 v 6.14 h 3.016 v 1.297 z"
         style="fill:#ffffff;fill-opacity:1;fill-rule:nonzero;stroke:none"
         id="path124" /><path
         d="m 217.301,149.938 c 0,1.937 -0.555,3.398 -1.656,4.374 -1.094,0.969 -2.622,1.454 -4.579,1.454 h -3.234 v -11.422 h 3.594 c 1.187,0 2.219,0.215 3.094,0.64 0.882,0.43 1.566,1.059 2.046,1.891 0.489,0.836 0.735,1.855 0.735,3.063 z m -2.5,0.062 c 0,-1.25 -0.281,-2.172 -0.844,-2.766 -0.555,-0.601 -1.355,-0.906 -2.406,-0.906 h -1.297 v 7.438 h 1.031 c 2.344,0 3.516,-1.254 3.516,-3.766 z"
         style="fill:#ffffff;fill-opacity:1;fill-rule:nonzero;stroke:none"
         id="path126" /><path
         d="m 223.953,155.766 h -5.203 v -1.375 l 1.391,-0.641 v -7.391 l -1.391,-0.64 v -1.375 h 5.203 v 1.375 l -1.406,0.64 v 7.391 l 1.406,0.641 z"
         style="fill:#ffffff;fill-opacity:1;fill-rule:nonzero;stroke:none"
         id="path128" /><path
         d="m 236.27,150.031 c 0,1.188 -0.2,2.227 -0.594,3.11 -0.387,0.875 -0.985,1.558 -1.797,2.047 -0.805,0.492 -1.82,0.734 -3.047,0.734 -1.242,0 -2.266,-0.242 -3.078,-0.734 -0.805,-0.489 -1.402,-1.176 -1.797,-2.063 -0.387,-0.883 -0.578,-1.922 -0.578,-3.109 0,-1.176 0.191,-2.204 0.578,-3.078 0.395,-0.876 0.992,-1.551 1.797,-2.032 0.812,-0.488 1.844,-0.734 3.094,-0.734 1.226,0 2.242,0.246 3.047,0.734 0.8,0.481 1.394,1.164 1.781,2.047 0.394,0.875 0.594,1.902 0.594,3.078 z m -8.344,0 c 0,1.199 0.226,2.141 0.687,2.828 0.457,0.688 1.196,1.032 2.219,1.032 1.031,0 1.77,-0.344 2.219,-1.032 0.445,-0.687 0.672,-1.629 0.672,-2.828 0,-1.187 -0.227,-2.125 -0.672,-2.812 -0.449,-0.688 -1.184,-1.031 -2.203,-1.031 -1.032,0 -1.778,0.343 -2.235,1.031 -0.461,0.687 -0.687,1.625 -0.687,2.812 z"
         style="fill:#ffffff;fill-opacity:1;fill-rule:nonzero;stroke:none"
         id="path130" /><path
         d="m 248.098,149.938 c 0,1.937 -0.555,3.398 -1.657,4.374 -1.093,0.969 -2.621,1.454 -4.578,1.454 h -3.234 v -11.422 h 3.594 c 1.187,0 2.218,0.215 3.093,0.64 0.883,0.43 1.567,1.059 2.047,1.891 0.489,0.836 0.735,1.855 0.735,3.063 z m -2.5,0.062 c 0,-1.25 -0.282,-2.172 -0.844,-2.766 -0.555,-0.601 -1.356,-0.906 -2.406,-0.906 h -1.297 v 7.438 h 1.031 c 2.344,0 3.516,-1.254 3.516,-3.766 z"
         style="fill:#ffffff;fill-opacity:1;fill-rule:nonzero;stroke:none"
         id="path132" /><path
         d="m 257.047,155.766 h -6.578 v -11.422 h 6.578 v 1.984 h -4.156 v 2.516 h 3.875 v 1.984 h -3.875 v 2.938 h 4.156 z"
         style="fill:#ffffff;fill-opacity:1;fill-rule:nonzero;stroke:none"
         id="path134" /><path
         d="m 85.887,106.074 c 1.562,0 2.711,0.281 3.453,0.844 0.738,0.562 1.109,1.422 1.109,2.578 0,0.524 -0.101,0.981 -0.297,1.375 -0.199,0.387 -0.461,0.715 -0.781,0.984 -0.324,0.274 -0.672,0.497 -1.047,0.672 l 3.36,4.969 h -2.688 l -2.719,-4.391 H 84.98 v 4.391 h -2.421 v -11.422 z m -0.172,1.985 H 84.98 v 3.078 h 0.782 c 0.8,0 1.375,-0.129 1.718,-0.391 0.344,-0.269 0.516,-0.664 0.516,-1.187 0,-0.539 -0.187,-0.926 -0.562,-1.157 -0.368,-0.226 -0.938,-0.343 -1.719,-0.343 z"
         style="fill:#ffffff;fill-opacity:1;fill-rule:nonzero;stroke:none"
         id="path136" /><path
         d="m 99.215,120.699 h -2 l -3.235,-5.625 h -0.046 c 0.007,0.356 0.023,0.711 0.046,1.063 0.02,0.355 0.036,0.711 0.047,1.062 v 3.5 h -1.406 v -7.437 h 1.984 l 3.235,5.578 h 0.031 c -0.023,-0.344 -0.039,-0.68 -0.047,-1.016 -0.012,-0.344 -0.023,-0.687 -0.031,-1.031 v -3.531 h 1.422 z"
         style="fill:#ffffff;fill-opacity:1;fill-rule:nonzero;stroke:none"
         id="path138" /><path
         d="m 110.199,113.262 -1.89,7.437 h -1.797 l -1,-3.906 c -0.024,-0.07 -0.047,-0.18 -0.078,-0.328 -0.032,-0.156 -0.071,-0.32 -0.11,-0.5 -0.043,-0.188 -0.078,-0.36 -0.109,-0.516 -0.031,-0.164 -0.047,-0.297 -0.047,-0.39 -0.012,0.093 -0.031,0.226 -0.063,0.39 -0.031,0.156 -0.07,0.324 -0.109,0.5 -0.031,0.18 -0.062,0.344 -0.094,0.5 -0.031,0.156 -0.058,0.278 -0.078,0.36 l -1,3.89 h -1.797 l -1.89,-7.437 h 1.547 l 0.953,4.062 c 0.039,0.168 0.082,0.371 0.125,0.61 0.05,0.242 0.097,0.484 0.14,0.734 0.039,0.242 0.071,0.445 0.094,0.609 0.02,-0.175 0.051,-0.382 0.094,-0.625 0.039,-0.238 0.082,-0.468 0.125,-0.687 0.051,-0.227 0.094,-0.406 0.125,-0.531 l 1.078,-4.172 h 1.5 l 1.078,4.172 c 0.031,0.125 0.066,0.304 0.109,0.531 0.051,0.219 0.098,0.453 0.141,0.703 0.039,0.242 0.07,0.445 0.094,0.609 0.019,-0.175 0.051,-0.382 0.094,-0.625 0.039,-0.238 0.086,-0.476 0.14,-0.718 0.051,-0.239 0.094,-0.442 0.125,-0.61 l 0.953,-4.062 z"
         style="fill:#ffffff;fill-opacity:1;fill-rule:nonzero;stroke:none"
         id="path140" /><path
         d="m 268.266,89.066 c 1.562,0 2.711,0.282 3.453,0.844 0.738,0.563 1.109,1.422 1.109,2.578 0,0.524 -0.101,0.981 -0.297,1.375 -0.199,0.387 -0.461,0.715 -0.781,0.985 -0.324,0.273 -0.672,0.496 -1.047,0.672 l 3.359,4.968 h -2.687 l -2.719,-4.39 h -1.297 v 4.39 h -2.421 V 89.066 Z m -0.172,1.985 h -0.735 v 3.078 h 0.782 c 0.8,0 1.375,-0.129 1.718,-0.391 0.344,-0.269 0.516,-0.664 0.516,-1.187 0,-0.539 -0.187,-0.926 -0.563,-1.156 -0.367,-0.227 -0.937,-0.344 -1.718,-0.344 z"
         style="fill:#ffffff;fill-opacity:1;fill-rule:nonzero;stroke:none"
         id="path142" /><path
         d="m 277.375,96.254 c 0.957,0 1.656,0.211 2.094,0.625 0.437,0.418 0.656,0.984 0.656,1.703 0,0.438 -0.09,0.844 -0.266,1.219 -0.179,0.375 -0.48,0.679 -0.906,0.906 -0.418,0.231 -0.984,0.344 -1.703,0.344 h -0.672 v 2.64 H 275 v -7.437 z m -0.094,1.297 h -0.703 v 2.203 h 0.516 c 0.437,0 0.785,-0.086 1.047,-0.266 0.257,-0.176 0.39,-0.461 0.39,-0.859 0,-0.719 -0.418,-1.078 -1.25,-1.078 z"
         style="fill:#ffffff;fill-opacity:1;fill-rule:nonzero;stroke:none"
         id="path144" /><path
         d="m 290.656,96.254 -1.89,7.437 h -1.797 l -1,-3.906 c -0.024,-0.07 -0.047,-0.18 -0.078,-0.328 -0.032,-0.156 -0.071,-0.32 -0.11,-0.5 -0.043,-0.187 -0.078,-0.359 -0.109,-0.516 -0.031,-0.164 -0.047,-0.296 -0.047,-0.39 -0.012,0.094 -0.031,0.226 -0.063,0.39 -0.031,0.157 -0.07,0.325 -0.109,0.5 -0.031,0.18 -0.062,0.344 -0.094,0.5 -0.031,0.157 -0.058,0.278 -0.078,0.36 l -1,3.89 h -1.797 l -1.89,-7.437 h 1.547 l 0.953,4.062 c 0.039,0.168 0.082,0.372 0.125,0.61 0.051,0.242 0.097,0.484 0.14,0.734 0.039,0.242 0.071,0.445 0.094,0.61 0.02,-0.176 0.051,-0.383 0.094,-0.625 0.039,-0.239 0.082,-0.469 0.125,-0.688 0.051,-0.227 0.094,-0.406 0.125,-0.531 l 1.078,-4.172 h 1.5 l 1.078,4.172 c 0.031,0.125 0.067,0.304 0.109,0.531 0.051,0.219 0.098,0.453 0.141,0.703 0.039,0.242 0.07,0.445 0.094,0.61 0.019,-0.176 0.051,-0.383 0.094,-0.625 0.039,-0.239 0.086,-0.477 0.14,-0.719 0.051,-0.238 0.094,-0.442 0.125,-0.61 l 0.953,-4.062 z"
         style="fill:#ffffff;fill-opacity:1;fill-rule:nonzero;stroke:none"
         id="path146" /><path
         d="m 238.703,205.273 c 2.02,0 3.492,0.438 4.422,1.313 0.937,0.867 1.406,2.062 1.406,3.594 0,0.918 -0.195,1.773 -0.578,2.562 -0.375,0.793 -1.012,1.434 -1.906,1.922 -0.887,0.481 -2.09,0.719 -3.609,0.719 H 237 v 5.594 h -3.312 v -15.704 z m -0.187,2.719 H 237 v 4.672 h 1.109 c 0.938,0 1.676,-0.187 2.219,-0.562 0.551,-0.375 0.828,-0.977 0.828,-1.813 0,-1.531 -0.883,-2.297 -2.64,-2.297 z"
         style="fill:#ffffff;fill-opacity:1;fill-rule:nonzero;stroke:none"
         id="path148" /><path
         d="m 256.754,221.02 c 0,1.398 -0.5,2.511 -1.5,3.343 -1,0.825 -2.43,1.235 -4.281,1.235 -1.657,0 -3.137,-0.313 -4.438,-0.938 v -3.109 c 0.75,0.324 1.52,0.621 2.313,0.89 0.8,0.274 1.597,0.407 2.39,0.407 0.821,0 1.407,-0.157 1.75,-0.469 0.344,-0.313 0.516,-0.711 0.516,-1.203 0,-0.395 -0.137,-0.727 -0.406,-1 -0.274,-0.281 -0.637,-0.539 -1.094,-0.781 -0.449,-0.25 -0.969,-0.516 -1.563,-0.797 -0.367,-0.176 -0.761,-0.383 -1.187,-0.625 -0.418,-0.239 -0.824,-0.535 -1.219,-0.891 -0.387,-0.363 -0.703,-0.801 -0.953,-1.312 -0.25,-0.52 -0.375,-1.141 -0.375,-1.86 0,-1.406 0.473,-2.5 1.422,-3.281 0.957,-0.781 2.258,-1.172 3.906,-1.172 0.82,0 1.598,0.094 2.328,0.281 0.727,0.188 1.504,0.461 2.328,0.813 l -1.078,2.594 c -0.718,-0.29 -1.367,-0.516 -1.937,-0.672 -0.574,-0.164 -1.156,-0.25 -1.75,-0.25 -0.637,0 -1.125,0.148 -1.469,0.437 -0.336,0.293 -0.5,0.672 -0.5,1.141 0,0.562 0.25,1.008 0.75,1.328 0.5,0.324 1.238,0.719 2.219,1.187 0.812,0.387 1.5,0.782 2.062,1.188 0.563,0.406 0.992,0.891 1.297,1.453 0.313,0.555 0.469,1.242 0.469,2.063 z"
         style="fill:#ffffff;fill-opacity:1;fill-rule:nonzero;stroke:none"
         id="path150" /><path
         d="m 272.406,209.676 v 10.156 c 0,1.086 -0.242,2.063 -0.718,2.938 -0.481,0.875 -1.204,1.57 -2.172,2.078 -0.969,0.5 -2.18,0.75 -3.625,0.75 -2.086,0 -3.668,-0.532 -4.75,-1.594 -1.086,-1.063 -1.625,-2.469 -1.625,-4.219 v -10.109 h 3.312 v 9.609 c 0,1.305 0.266,2.215 0.797,2.735 0.531,0.523 1.316,0.781 2.359,0.781 1.082,0 1.868,-0.285 2.36,-0.86 0.488,-0.57 0.734,-1.461 0.734,-2.671 v -9.594 z"
         style="fill:#ffffff;fill-opacity:1;fill-rule:nonzero;stroke:none"
         id="path152" /><path
         d="m 276.258,209.676 h 4.875 c 2.082,0 3.66,0.293 4.734,0.875 1.082,0.586 1.625,1.621 1.625,3.109 0,0.887 -0.211,1.641 -0.625,2.266 -0.418,0.617 -1.015,0.984 -1.797,1.109 v 0.11 c 0.52,0.125 0.992,0.32 1.422,0.578 0.438,0.25 0.781,0.625 1.031,1.125 0.25,0.5 0.375,1.164 0.375,1.984 0,1.418 -0.523,2.531 -1.562,3.344 -1.031,0.804 -2.434,1.203 -4.203,1.203 h -5.875 z m 3.312,6.219 h 1.938 c 0.969,0 1.64,-0.149 2.015,-0.454 0.375,-0.3 0.563,-0.75 0.563,-1.343 0,-0.602 -0.227,-1.036 -0.672,-1.297 -0.437,-0.27 -1.133,-0.406 -2.078,-0.406 h -1.766 z m 0,2.64 v 4.094 h 2.188 c 0.988,0 1.68,-0.191 2.078,-0.578 0.394,-0.395 0.594,-0.914 0.594,-1.563 0,-0.582 -0.203,-1.05 -0.61,-1.406 -0.398,-0.363 -1.121,-0.547 -2.172,-0.547 z"
         style="fill:#ffffff;fill-opacity:1;fill-rule:nonzero;stroke:none"
         id="path154" /><path
         d="m 219.188,19.203 h -2.313 L 208.469,6.156 h -0.094 c 0.031,0.512 0.066,1.153 0.109,1.922 0.039,0.762 0.063,1.543 0.063,2.344 v 8.781 h -1.813 V 3.5 h 2.282 l 8.375,13 h 0.093 c -0.011,-0.238 -0.031,-0.594 -0.062,-1.062 -0.024,-0.469 -0.043,-0.973 -0.063,-1.516 -0.023,-0.551 -0.031,-1.07 -0.031,-1.563 V 3.5 h 1.86 z"
         style="fill:#000000;fill-opacity:1;fill-rule:nonzero;stroke:none"
         id="path156" /><path
         d="M 230.375,19.203 225.203,5.438 h -0.078 c 0.039,0.449 0.07,1.058 0.094,1.828 0.031,0.773 0.047,1.574 0.047,2.406 v 9.531 h -1.813 V 3.5 h 2.922 l 4.844,12.859 h 0.078 L 236.234,3.5 h 2.891 v 15.703 h -1.953 V 9.547 c 0,-0.758 0.016,-1.516 0.047,-2.266 0.039,-0.75 0.078,-1.359 0.109,-1.828 h -0.094 L 232,19.203 Z"
         style="fill:#000000;fill-opacity:1;fill-rule:nonzero;stroke:none"
         id="path158" /><path
         d="m 257.109,11.328 c 0,1.625 -0.277,3.047 -0.828,4.266 -0.554,1.211 -1.371,2.152 -2.453,2.828 -1.074,0.668 -2.39,1 -3.953,1 -1.637,0 -2.996,-0.332 -4.078,-1 -1.074,-0.676 -1.875,-1.625 -2.406,-2.844 -0.524,-1.219 -0.782,-2.64 -0.782,-4.266 0,-1.601 0.258,-3.007 0.782,-4.218 0.531,-1.207 1.332,-2.149 2.406,-2.828 1.082,-0.676 2.445,-1.016 4.094,-1.016 1.57,0 2.89,0.336 3.953,1 1.07,0.668 1.883,1.609 2.437,2.828 0.551,1.211 0.828,2.625 0.828,4.25 z m -12.406,0 c 0,1.981 0.414,3.539 1.25,4.672 0.832,1.137 2.141,1.703 3.922,1.703 1.77,0 3.066,-0.566 3.891,-1.703 0.832,-1.133 1.25,-2.691 1.25,-4.672 0,-1.976 -0.414,-3.531 -1.235,-4.656 -0.824,-1.125 -2.121,-1.688 -3.89,-1.688 -1.793,0 -3.106,0.563 -3.938,1.688 -0.836,1.125 -1.25,2.68 -1.25,4.656 z"
         style="fill:#000000;fill-opacity:1;fill-rule:nonzero;stroke:none"
         id="path160" /><path
         d="m 269.496,15 c 0,1.398 -0.508,2.484 -1.516,3.266 -1.011,0.773 -2.375,1.156 -4.093,1.156 -0.887,0 -1.703,-0.07 -2.453,-0.203 -0.743,-0.125 -1.36,-0.305 -1.86,-0.547 v -1.891 c 0.52,0.242 1.172,0.453 1.953,0.641 0.789,0.187 1.602,0.281 2.438,0.281 1.164,0 2.047,-0.223 2.64,-0.672 0.602,-0.457 0.907,-1.078 0.907,-1.859 0,-0.508 -0.11,-0.942 -0.328,-1.297 -0.219,-0.352 -0.602,-0.676 -1.141,-0.969 -0.543,-0.289 -1.281,-0.613 -2.219,-0.968 -1.355,-0.477 -2.371,-1.067 -3.047,-1.766 -0.679,-0.707 -1.015,-1.672 -1.015,-2.891 0,-0.82 0.211,-1.531 0.64,-2.125 0.426,-0.601 1.016,-1.066 1.766,-1.39 0.75,-0.321 1.625,-0.485 2.625,-0.485 0.844,0 1.625,0.086 2.344,0.25 0.718,0.157 1.379,0.367 1.984,0.625 l -0.625,1.688 c -0.543,-0.227 -1.137,-0.422 -1.781,-0.578 -0.649,-0.164 -1.305,-0.25 -1.969,-0.25 -0.992,0 -1.734,0.211 -2.234,0.625 -0.492,0.418 -0.735,0.968 -0.735,1.656 0,0.531 0.11,0.976 0.328,1.328 0.219,0.355 0.579,0.672 1.079,0.953 0.5,0.281 1.171,0.578 2.015,0.891 0.926,0.336 1.707,0.699 2.344,1.093 0.633,0.387 1.117,0.852 1.453,1.391 0.332,0.543 0.5,1.227 0.5,2.047 z"
         style="fill:#000000;fill-opacity:1;fill-rule:nonzero;stroke:none"
         id="path162" /><g
         id="g164"><path
           d="M 45.355,45.355 V 158.738 H 323.148 V 45.355"
           style="fill:none;stroke:#0046e7;stroke-width:2.83464;stroke-linecap:round;stroke-linejoin:round;stroke-miterlimit:4;stroke-dasharray:none;stroke-opacity:1"
           id="path166" /></g><g
         id="g168"><path
           d="m 198.426,45.355 v 79.368 H 317.48 V 45.355"
           style="fill:none;stroke:#00a6e7;stroke-width:2.83465;stroke-linecap:round;stroke-linejoin:round;stroke-miterlimit:4;stroke-dasharray:none;stroke-opacity:1"
           id="path170" /></g><g
         id="g172"><g
           id="g174" /><g
           id="g186"><g
             clip-path="url(#clipPath178)"
             opacity="0.97"
             id="g184"><g
               id="g182"><path
                 d="M 62.363,45.355 H 85.039 V 68.031 H 62.363 Z"
                 style="fill:#00e787;fill-opacity:1;fill-rule:nonzero;stroke:none"
                 id="path180" /></g></g></g></g><path
         d="m 73.293,62.406 h -1.688 l -6.109,-9.484 h -0.062 c 0.019,0.375 0.046,0.84 0.078,1.39 0.031,0.555 0.047,1.122 0.047,1.704 v 6.39 H 64.23 V 50.984 h 1.672 l 6.094,9.454 h 0.063 C 72.047,60.273 72.031,60.016 72.012,59.672 72,59.328 71.984,58.961 71.965,58.562 71.953,58.156 71.949,57.781 71.949,57.438 v -6.454 h 1.344 z"
         style="fill:#000000;fill-opacity:1;fill-rule:nonzero;stroke:none"
         id="path188" /><path
         d="m 79.984,56.203 h 3.172 v 1.125 h -3.172 v 3.297 h -1.156 v -3.297 h -3.187 v -1.125 h 3.187 v -3.312 h 1.156 z"
         style="fill:#000000;fill-opacity:1;fill-rule:nonzero;stroke:none"
         id="path190" /><g
         id="g192"><g
           id="g194" /><g
           id="g206"><g
             clip-path="url(#clipPath198)"
             opacity="0.97"
             id="g204"><g
               id="g202"><path
                 d="m 249.449,45.355 h 22.676 v 22.676 h -22.676 z"
                 style="fill:#00e787;fill-opacity:1;fill-rule:nonzero;stroke:none"
                 id="path200" /></g></g></g></g><path
         d="m 260.379,62.406 h -1.688 l -6.109,-9.484 h -0.062 c 0.019,0.375 0.046,0.84 0.078,1.39 0.031,0.555 0.047,1.122 0.047,1.704 v 6.39 h -1.329 V 50.984 h 1.672 l 6.094,9.454 h 0.063 c -0.012,-0.165 -0.028,-0.422 -0.047,-0.766 -0.012,-0.344 -0.028,-0.711 -0.047,-1.11 -0.012,-0.406 -0.016,-0.781 -0.016,-1.124 v -6.454 h 1.344 z"
         style="fill:#000000;fill-opacity:1;fill-rule:nonzero;stroke:none"
         id="path208" /><path
         d="m 267.07,56.203 h 3.172 v 1.125 h -3.172 v 3.297 h -1.156 v -3.297 h -3.187 v -1.125 h 3.187 v -3.312 h 1.156 z"
         style="fill:#000000;fill-opacity:1;fill-rule:nonzero;stroke:none"
         id="path210" /><g
         id="g212"><g
           id="g214" /><g
           id="g226"><g
             clip-path="url(#clipPath218)"
             opacity="0.97"
             id="g224"><g
               id="g222"><path
                 d="m 204.094,45.355 h 22.68 v 22.676 h -22.68 z"
                 style="fill:#00e787;fill-opacity:1;fill-rule:nonzero;stroke:none"
                 id="path220" /></g></g></g></g><path
         d="m 215.027,62.406 h -1.687 l -6.11,-9.484 h -0.062 c 0.02,0.375 0.047,0.84 0.078,1.39 0.031,0.555 0.047,1.122 0.047,1.704 v 6.39 h -1.328 V 50.984 h 1.672 l 6.093,9.454 h 0.063 c -0.012,-0.165 -0.027,-0.422 -0.047,-0.766 -0.012,-0.344 -0.027,-0.711 -0.047,-1.11 -0.011,-0.406 -0.015,-0.781 -0.015,-1.124 v -6.454 h 1.343 z"
         style="fill:#000000;fill-opacity:1;fill-rule:nonzero;stroke:none"
         id="path228" /><path
         d="m 221.719,56.203 h 3.172 v 1.125 h -3.172 v 3.297 h -1.157 v -3.297 h -3.187 v -1.125 h 3.187 v -3.312 h 1.157 z"
         style="fill:#000000;fill-opacity:1;fill-rule:nonzero;stroke:none"
         id="path230" /><g
         id="g232"><path
           d="m 136.859,28.027 h 3.953 v 5.594 c -0.624,0.211 -1.257,0.359 -1.89,0.453 -0.625,0.094 -1.336,0.141 -2.125,0.141 -1.188,0 -2.188,-0.235 -3,-0.703 -0.813,-0.477 -1.434,-1.157 -1.859,-2.032 -0.418,-0.882 -0.626,-1.929 -0.626,-3.14 0,-1.176 0.235,-2.203 0.704,-3.078 0.468,-0.883 1.144,-1.567 2.031,-2.047 0.883,-0.488 1.945,-0.735 3.187,-0.735 0.645,0 1.25,0.059 1.813,0.172 0.57,0.118 1.101,0.282 1.594,0.5 l -0.532,1.25 c -0.406,-0.175 -0.867,-0.328 -1.375,-0.453 -0.511,-0.133 -1.039,-0.203 -1.578,-0.203 -1.367,0 -2.429,0.414 -3.187,1.234 -0.762,0.825 -1.141,1.946 -1.141,3.36 0,0.906 0.145,1.715 0.438,2.422 0.289,0.699 0.75,1.242 1.375,1.625 0.632,0.386 1.461,0.578 2.484,0.578 0.5,0 0.926,-0.024 1.281,-0.078 0.352,-0.051 0.676,-0.114 0.969,-0.188 v -3.39 h -2.516 z"
           style="fill:#000000;fill-opacity:1;fill-rule:nonzero;stroke:#000000;stroke-width:0.749999;stroke-linecap:butt;stroke-linejoin:miter;stroke-miterlimit:4;stroke-dasharray:none;stroke-opacity:1"
           id="path234" /></g><g
         id="g236"><path
           d="m 238.906,28.027 h 3.953 v 5.594 c -0.625,0.211 -1.257,0.359 -1.89,0.453 -0.625,0.094 -1.336,0.141 -2.125,0.141 -1.188,0 -2.188,-0.235 -3,-0.703 -0.813,-0.477 -1.434,-1.157 -1.86,-2.032 -0.418,-0.882 -0.625,-1.929 -0.625,-3.14 0,-1.176 0.235,-2.203 0.703,-3.078 0.469,-0.883 1.145,-1.567 2.032,-2.047 0.883,-0.488 1.945,-0.735 3.187,-0.735 0.645,0 1.25,0.059 1.813,0.172 0.57,0.118 1.101,0.282 1.594,0.5 l -0.532,1.25 c -0.406,-0.175 -0.867,-0.328 -1.375,-0.453 -0.511,-0.133 -1.039,-0.203 -1.578,-0.203 -1.367,0 -2.43,0.414 -3.187,1.234 -0.762,0.825 -1.141,1.946 -1.141,3.36 0,0.906 0.145,1.715 0.437,2.422 0.29,0.699 0.75,1.242 1.376,1.625 0.632,0.386 1.46,0.578 2.484,0.578 0.5,0 0.926,-0.024 1.281,-0.078 0.352,-0.051 0.676,-0.114 0.969,-0.188 v -3.39 h -2.516 z"
           style="fill:#000000;fill-opacity:1;fill-rule:nonzero;stroke:#000000;stroke-width:0.749999;stroke-linecap:butt;stroke-linejoin:miter;stroke-miterlimit:4;stroke-dasharray:none;stroke-opacity:1"
           id="path238" /></g><g
         id="g240"><path
           d="m 163.316,79.254 c 0,1.937 -0.527,3.398 -1.578,4.375 -1.054,0.969 -2.515,1.453 -4.39,1.453 H 154.16 V 73.66 h 3.531 c 1.133,0 2.125,0.215 2.969,0.641 0.852,0.429 1.508,1.058 1.969,1.89 0.457,0.836 0.687,1.856 0.687,3.063 z m -1.515,0.047 c 0,-1.52 -0.383,-2.633 -1.141,-3.344 -0.75,-0.707 -1.812,-1.062 -3.187,-1.062 h -1.875 v 8.953 h 1.562 c 3.094,0 4.641,-1.516 4.641,-4.547 z"
           style="fill:#000000;fill-opacity:1;fill-rule:nonzero;stroke:#000000;stroke-width:0.749999;stroke-linecap:butt;stroke-linejoin:miter;stroke-miterlimit:4;stroke-dasharray:none;stroke-opacity:1"
           id="path242" /></g><g
         id="g244"><path
           d="m 220.008,79.254 c 0,1.937 -0.528,3.398 -1.578,4.375 -1.055,0.969 -2.516,1.453 -4.391,1.453 h -3.187 V 73.66 h 3.531 c 1.133,0 2.125,0.215 2.969,0.641 0.851,0.429 1.507,1.058 1.968,1.89 0.457,0.836 0.688,1.856 0.688,3.063 z m -1.516,0.047 c 0,-1.52 -0.383,-2.633 -1.14,-3.344 -0.75,-0.707 -1.813,-1.062 -3.188,-1.062 h -1.875 v 8.953 h 1.563 c 3.093,0 4.64,-1.516 4.64,-4.547 z"
           style="fill:#000000;fill-opacity:1;fill-rule:nonzero;stroke:#000000;stroke-width:0.749999;stroke-linecap:butt;stroke-linejoin:miter;stroke-miterlimit:4;stroke-dasharray:none;stroke-opacity:1"
           id="path246" /></g><g
         id="g248"><path
           d="m 116.992,82.02 c 0,1.023 -0.371,1.812 -1.109,2.375 -0.731,0.562 -1.719,0.843 -2.969,0.843 -0.648,0 -1.242,-0.047 -1.781,-0.14 -0.543,-0.094 -0.996,-0.227 -1.36,-0.407 v -1.375 c 0.383,0.18 0.864,0.336 1.438,0.469 0.57,0.137 1.16,0.203 1.766,0.203 0.843,0 1.484,-0.16 1.921,-0.484 0.438,-0.332 0.657,-0.781 0.657,-1.344 0,-0.375 -0.086,-0.687 -0.25,-0.937 -0.157,-0.258 -0.434,-0.493 -0.828,-0.703 -0.399,-0.219 -0.934,-0.458 -1.61,-0.719 -0.98,-0.352 -1.719,-0.785 -2.219,-1.297 -0.492,-0.508 -0.734,-1.207 -0.734,-2.094 0,-0.594 0.156,-1.109 0.469,-1.547 0.312,-0.437 0.738,-0.769 1.281,-1 0.539,-0.238 1.176,-0.359 1.906,-0.359 0.614,0 1.18,0.058 1.703,0.172 0.532,0.117 1.016,0.273 1.454,0.469 l -0.454,1.218 c -0.398,-0.164 -0.828,-0.304 -1.296,-0.422 -0.469,-0.113 -0.95,-0.171 -1.438,-0.171 -0.719,0 -1.262,0.152 -1.625,0.453 -0.355,0.304 -0.531,0.703 -0.531,1.203 0,0.386 0.078,0.711 0.234,0.969 0.156,0.25 0.414,0.48 0.781,0.687 0.364,0.211 0.852,0.422 1.469,0.641 0.676,0.25 1.242,0.515 1.703,0.797 0.469,0.281 0.821,0.621 1.063,1.015 0.238,0.399 0.359,0.891 0.359,1.485 z"
           style="fill:#000000;fill-opacity:1;fill-rule:nonzero;stroke:#000000;stroke-width:0.749999;stroke-linecap:butt;stroke-linejoin:miter;stroke-miterlimit:4;stroke-dasharray:none;stroke-opacity:1"
           id="path250" /></g><g
         id="g252"><path
           d="m 264.395,82.02 c 0,1.023 -0.372,1.812 -1.11,2.375 -0.73,0.562 -1.719,0.843 -2.969,0.843 -0.648,0 -1.242,-0.047 -1.781,-0.14 -0.543,-0.094 -0.996,-0.227 -1.359,-0.407 v -1.375 c 0.383,0.18 0.863,0.336 1.437,0.469 0.571,0.137 1.16,0.203 1.766,0.203 0.844,0 1.484,-0.16 1.922,-0.484 0.437,-0.332 0.656,-0.781 0.656,-1.344 0,-0.375 -0.086,-0.687 -0.25,-0.937 -0.156,-0.258 -0.434,-0.493 -0.828,-0.703 -0.399,-0.219 -0.934,-0.458 -1.609,-0.719 -0.981,-0.352 -1.719,-0.785 -2.219,-1.297 -0.492,-0.508 -0.735,-1.207 -0.735,-2.094 0,-0.594 0.157,-1.109 0.469,-1.547 0.313,-0.437 0.738,-0.769 1.281,-1 0.539,-0.238 1.176,-0.359 1.907,-0.359 0.613,0 1.179,0.058 1.703,0.172 0.531,0.117 1.015,0.273 1.453,0.469 l -0.453,1.218 c -0.399,-0.164 -0.828,-0.304 -1.297,-0.422 -0.469,-0.113 -0.949,-0.171 -1.438,-0.171 -0.718,0 -1.261,0.152 -1.625,0.453 -0.355,0.304 -0.531,0.703 -0.531,1.203 0,0.386 0.078,0.711 0.235,0.969 0.156,0.25 0.414,0.48 0.781,0.687 0.363,0.211 0.851,0.422 1.469,0.641 0.675,0.25 1.242,0.515 1.703,0.797 0.468,0.281 0.82,0.621 1.062,1.015 0.238,0.399 0.36,0.891 0.36,1.485 z"
           style="fill:#000000;fill-opacity:1;fill-rule:nonzero;stroke:#000000;stroke-width:0.749999;stroke-linecap:butt;stroke-linejoin:miter;stroke-miterlimit:4;stroke-dasharray:none;stroke-opacity:1"
           id="path254" /></g><g
         id="g256"><g
           id="g258" /><g
           id="g270"><g
             clip-path="url(#clipPath262)"
             opacity="0.97"
             id="g268"><g
               id="g266"><path
                 d="m 102.047,45.355 h 22.676 v 22.676 h -22.676 z"
                 style="fill:#00e787;fill-opacity:1;fill-rule:nonzero;stroke:none"
                 id="path264" /></g></g></g></g><path
         d="m 108.188,50.984 c 1.488,0 2.57,0.297 3.25,0.891 0.687,0.586 1.031,1.406 1.031,2.469 0,0.625 -0.141,1.215 -0.422,1.765 -0.281,0.555 -0.758,1 -1.422,1.344 -0.668,0.336 -1.574,0.5 -2.719,0.5 h -1.312 v 4.453 h -1.438 V 50.984 Z m -0.126,1.235 h -1.468 v 4.5 h 1.156 c 1.094,0 1.906,-0.172 2.438,-0.516 0.531,-0.351 0.796,-0.953 0.796,-1.797 0,-0.738 -0.242,-1.285 -0.718,-1.64 -0.469,-0.364 -1.204,-0.547 -2.204,-0.547 z"
         style="fill:#000000;fill-opacity:1;fill-rule:nonzero;stroke:none"
         id="path272" /><path
         d="m 118.43,56.203 h 3.172 v 1.125 h -3.172 v 3.297 h -1.157 v -3.297 h -3.187 v -1.125 h 3.187 v -3.312 h 1.157 z"
         style="fill:#000000;fill-opacity:1;fill-rule:nonzero;stroke:none"
         id="path274" /><g
         id="g276"><g
           id="g278" /><g
           id="g290"><g
             clip-path="url(#clipPath282)"
             opacity="0.97"
             id="g288"><g
               id="g286"><path
                 d="m 289.133,45.355 h 22.68 v 22.676 h -22.68 z"
                 style="fill:#00e787;fill-opacity:1;fill-rule:nonzero;stroke:none"
                 id="path284" /></g></g></g></g><path
         d="m 295.273,50.984 c 1.489,0 2.571,0.297 3.25,0.891 0.688,0.586 1.032,1.406 1.032,2.469 0,0.625 -0.141,1.215 -0.422,1.765 -0.281,0.555 -0.758,1 -1.422,1.344 -0.668,0.336 -1.574,0.5 -2.719,0.5 h -1.312 v 4.453 h -1.438 V 50.984 Z m -0.125,1.235 h -1.468 v 4.5 h 1.156 c 1.094,0 1.906,-0.172 2.437,-0.516 0.532,-0.351 0.797,-0.953 0.797,-1.797 0,-0.738 -0.242,-1.285 -0.718,-1.64 -0.469,-0.364 -1.204,-0.547 -2.204,-0.547 z"
         style="fill:#000000;fill-opacity:1;fill-rule:nonzero;stroke:none"
         id="path292" /><path
         d="m 305.516,56.203 h 3.172 v 1.125 h -3.172 v 3.297 h -1.157 v -3.297 h -3.187 v -1.125 h 3.187 v -3.312 h 1.157 z"
         style="fill:#000000;fill-opacity:1;fill-rule:nonzero;stroke:none"
         id="path294" /><g
         id="g296"><g
           id="g298" /><g
           id="g310"><g
             clip-path="url(#clipPath302)"
             opacity="0.97"
             id="g308"><g
               id="g306"><path
                 d="m 147.402,45.355 h 22.676 v 22.676 h -22.676 z"
                 style="fill:#00e787;fill-opacity:1;fill-rule:nonzero;stroke:none"
                 id="path304" /></g></g></g></g><path
         d="m 153.543,50.984 c 1.488,0 2.57,0.297 3.25,0.891 0.687,0.586 1.031,1.406 1.031,2.469 0,0.625 -0.14,1.215 -0.422,1.765 -0.281,0.555 -0.757,1 -1.422,1.344 -0.668,0.336 -1.574,0.5 -2.718,0.5 h -1.313 v 4.453 h -1.437 V 50.984 Z m -0.125,1.235 h -1.469 v 4.5 h 1.156 c 1.094,0 1.907,-0.172 2.438,-0.516 0.531,-0.351 0.797,-0.953 0.797,-1.797 0,-0.738 -0.242,-1.285 -0.719,-1.64 -0.469,-0.364 -1.203,-0.547 -2.203,-0.547 z"
         style="fill:#000000;fill-opacity:1;fill-rule:nonzero;stroke:none"
         id="path312" /><path
         d="m 163.785,56.203 h 3.172 v 1.125 h -3.172 v 3.297 h -1.156 v -3.297 h -3.188 v -1.125 h 3.188 v -3.312 h 1.156 z"
         style="fill:#000000;fill-opacity:1;fill-rule:nonzero;stroke:none"
         id="path314" /><g
         id="g316"><path
           d="m 124.723,39.684 h 22.679"
           style="fill:none;stroke:#ff00c7;stroke-width:2.83464;stroke-linecap:round;stroke-linejoin:round;stroke-miterlimit:4;stroke-dasharray:none;stroke-opacity:1"
           id="path318" /></g><g
         id="g320"><path
           d="m 226.773,39.684 h 22.676"
           style="fill:none;stroke:#ff00c7;stroke-width:2.83464;stroke-linecap:round;stroke-linejoin:round;stroke-miterlimit:4;stroke-dasharray:none;stroke-opacity:1"
           id="path322" /></g><g
         id="g324"><path
           d="M 113.387,45.355 V 28.348 H 73.699 V 45.355 28.348 H 45.355"
           style="fill:none;stroke:#000000;stroke-width:2.83465;stroke-linecap:round;stroke-linejoin:round;stroke-miterlimit:4;stroke-dasharray:none;stroke-opacity:1"
           id="path326" /></g><g
         id="g328"><path
           d="M 260.789,45.355 V 28.348 h 39.684 V 45.355 28.348 h 17.007"
           style="fill:none;stroke:#000000;stroke-width:2.83465;stroke-linecap:round;stroke-linejoin:round;stroke-miterlimit:4;stroke-dasharray:none;stroke-opacity:1"
           id="path330" /></g><g
         id="g332"><path
           d="m 141.73,136.062 v 11.34 h -11.335 22.675 -11.34 l -11.335,17.008 h 22.675 l -11.34,-17.008 -11.335,17.008 h 11.335 v 11.336"
           style="fill:none;stroke:#ffffff;stroke-width:2.83465;stroke-linecap:round;stroke-linejoin:round;stroke-miterlimit:4;stroke-dasharray:none;stroke-opacity:1"
           id="path334" /></g><g
         id="g336"><path
           d="m 266.457,147.402 v -11.34 h -11.34 22.68 -11.34 l -11.34,-17.007 h 22.68 l -11.34,17.007 -11.34,-17.007 h 11.34 v -11.34"
           style="fill:none;stroke:#ffffff;stroke-width:2.83465;stroke-linecap:round;stroke-linejoin:round;stroke-miterlimit:4;stroke-dasharray:none;stroke-opacity:1"
           id="path338" /></g><g
         id="g340"><path
           d="m 73.699,158.738 v -34.015 h -5.668 11.34 v -22.676 h -11.34 v 22.676 -22.676 h 5.668 V 68.031"
           style="fill:none;stroke:#ffffff;stroke-width:2.83465;stroke-linecap:round;stroke-linejoin:round;stroke-miterlimit:4;stroke-dasharray:none;stroke-opacity:1"
           id="path342" /></g><g
         id="g344"><path
           d="m 300.473,124.723 v -17.008 h -5.668 11.336 V 85.039 h -11.336 v 22.676 -22.676 h 5.668 V 68.031"
           style="fill:none;stroke:#ffffff;stroke-width:2.83465;stroke-linecap:round;stroke-linejoin:round;stroke-miterlimit:4;stroke-dasharray:none;stroke-opacity:1"
           id="path346" /></g><path
         d="m 149.98,119.055 h -3.062 l -4.984,-8.641 h -0.063 c 0.02,0.543 0.039,1.09 0.063,1.641 0.031,0.543 0.054,1.086 0.078,1.625 v 5.375 h -2.157 v -11.422 h 3.063 l 4.953,8.562 h 0.047 c -0.023,-0.519 -0.043,-1.039 -0.063,-1.562 -0.023,-0.531 -0.039,-1.063 -0.046,-1.594 v -5.406 h 2.171 z"
         style="fill:#ffffff;fill-opacity:1;fill-rule:nonzero;stroke:none"
         id="path348" /><path
         d="m 161.492,114.816 -1.89,7.438 h -1.797 l -1,-3.906 c -0.024,-0.071 -0.047,-0.18 -0.078,-0.328 -0.032,-0.157 -0.071,-0.321 -0.11,-0.5 -0.043,-0.188 -0.078,-0.36 -0.109,-0.516 -0.031,-0.164 -0.047,-0.297 -0.047,-0.391 -0.012,0.094 -0.031,0.227 -0.063,0.391 -0.031,0.156 -0.07,0.324 -0.109,0.5 -0.031,0.18 -0.062,0.344 -0.094,0.5 -0.031,0.156 -0.058,0.277 -0.078,0.359 l -1,3.891 h -1.797 l -1.89,-7.438 h 1.547 l 0.953,4.063 c 0.039,0.168 0.082,0.371 0.125,0.609 0.05,0.242 0.097,0.485 0.14,0.735 0.039,0.242 0.071,0.445 0.094,0.609 0.02,-0.176 0.051,-0.383 0.094,-0.625 0.039,-0.238 0.082,-0.469 0.125,-0.687 0.051,-0.227 0.094,-0.407 0.125,-0.532 l 1.078,-4.172 h 1.5 l 1.078,4.172 c 0.031,0.125 0.066,0.305 0.109,0.532 0.051,0.218 0.098,0.453 0.141,0.703 0.039,0.242 0.07,0.445 0.094,0.609 0.019,-0.176 0.051,-0.383 0.094,-0.625 0.039,-0.238 0.085,-0.477 0.14,-0.719 0.051,-0.238 0.094,-0.441 0.125,-0.609 l 0.953,-4.063 z"
         style="fill:#ffffff;fill-opacity:1;fill-rule:nonzero;stroke:none"
         id="path350" /><path
         d="m 166.703,122.254 h -4.281 v -7.438 h 4.281 v 1.297 H 164 v 1.641 h 2.516 v 1.281 H 164 v 1.922 h 2.703 z"
         style="fill:#ffffff;fill-opacity:1;fill-rule:nonzero;stroke:none"
         id="path352" /><path
         d="m 168.246,122.254 v -7.438 h 1.578 v 6.141 h 3.016 v 1.297 z"
         style="fill:#ffffff;fill-opacity:1;fill-rule:nonzero;stroke:none"
         id="path354" /><path
         d="m 174.121,122.254 v -7.438 h 1.578 v 6.141 h 3.016 v 1.297 z"
         style="fill:#ffffff;fill-opacity:1;fill-rule:nonzero;stroke:none"
         id="path356" /><g
         id="g358"><g
           id="g360" /><g
           id="g374"><g
             clip-path="url(#clipPath364)"
             opacity="0.97"
             id="g372"><g
               id="g370"><g
                 id="g368"><path
                   d="m 136.062,102.047 h 45.355 v 22.676 h -45.355 z"
                   style="fill:none;stroke:#ffffff;stroke-width:2.26771;stroke-linecap:round;stroke-linejoin:round;stroke-miterlimit:4;stroke-dasharray:none;stroke-opacity:1"
                   id="path366" /></g></g></g></g></g><path
         d="m 213.023,101.965 c 1.469,0 2.539,0.32 3.219,0.953 0.676,0.637 1.016,1.508 1.016,2.609 0,0.68 -0.141,1.305 -0.422,1.875 -0.274,0.575 -0.731,1.039 -1.375,1.391 -0.649,0.355 -1.527,0.531 -2.641,0.531 h -1.031 v 4.063 h -2.422 v -11.422 z m -0.14,1.984 h -1.094 v 3.391 h 0.797 c 0.687,0 1.226,-0.133 1.625,-0.406 0.394,-0.27 0.594,-0.711 0.594,-1.329 0,-1.101 -0.641,-1.656 -1.922,-1.656 z"
         style="fill:#ffffff;fill-opacity:1;fill-rule:nonzero;stroke:none"
         id="path376" /><path
         d="m 228.043,109.148 -1.891,7.438 h -1.797 l -1,-3.906 c -0.023,-0.071 -0.046,-0.18 -0.078,-0.328 -0.031,-0.157 -0.07,-0.321 -0.109,-0.5 -0.043,-0.188 -0.078,-0.36 -0.109,-0.516 -0.032,-0.164 -0.047,-0.297 -0.047,-0.391 -0.012,0.094 -0.032,0.227 -0.063,0.391 -0.031,0.156 -0.07,0.324 -0.109,0.5 -0.031,0.18 -0.063,0.344 -0.094,0.5 -0.031,0.156 -0.058,0.277 -0.078,0.359 l -1,3.891 h -1.797 l -1.891,-7.438 h 1.547 l 0.953,4.063 c 0.04,0.168 0.082,0.371 0.125,0.609 0.051,0.242 0.098,0.485 0.141,0.735 0.039,0.242 0.07,0.445 0.094,0.609 0.019,-0.176 0.051,-0.383 0.094,-0.625 0.039,-0.238 0.082,-0.469 0.125,-0.687 0.05,-0.227 0.093,-0.407 0.125,-0.532 l 1.078,-4.172 h 1.5 l 1.078,4.172 c 0.031,0.125 0.066,0.305 0.109,0.532 0.051,0.218 0.098,0.453 0.141,0.703 0.039,0.242 0.07,0.445 0.094,0.609 0.019,-0.176 0.05,-0.383 0.093,-0.625 0.039,-0.238 0.086,-0.477 0.141,-0.719 0.051,-0.238 0.094,-0.441 0.125,-0.609 l 0.953,-4.063 z"
         style="fill:#ffffff;fill-opacity:1;fill-rule:nonzero;stroke:none"
         id="path378" /><path
         d="m 233.254,116.586 h -4.281 v -7.438 h 4.281 v 1.297 h -2.703 v 1.641 h 2.515 v 1.281 h -2.515 v 1.922 h 2.703 z"
         style="fill:#ffffff;fill-opacity:1;fill-rule:nonzero;stroke:none"
         id="path380" /><path
         d="m 234.797,116.586 v -7.438 h 1.578 v 6.141 h 3.016 v 1.297 z"
         style="fill:#ffffff;fill-opacity:1;fill-rule:nonzero;stroke:none"
         id="path382" /><path
         d="m 240.672,116.586 v -7.438 h 1.578 v 6.141 h 3.016 v 1.297 z"
         style="fill:#ffffff;fill-opacity:1;fill-rule:nonzero;stroke:none"
         id="path384" /><g
         id="g386"><g
           id="g388" /><g
           id="g402"><g
             clip-path="url(#clipPath392)"
             opacity="0.97"
             id="g400"><g
               id="g398"><g
                 id="g396"><path
                   d="m 204.094,96.379 h 45.355 v 22.676 h -45.355 z"
                   style="fill:none;stroke:#ffffff;stroke-width:2.26771;stroke-linecap:round;stroke-linejoin:round;stroke-miterlimit:4;stroke-dasharray:none;stroke-opacity:1"
                   id="path394" /></g></g></g></g></g><g
         id="g404"><g
           id="g406" /><g
           id="g420"><g
             clip-path="url(#clipPath410)"
             opacity="0.97"
             id="g418"><g
               id="g416"><g
                 id="g414"><path
                   d="m 226.773,198.426 h 68.031 v 34.016 h -68.031 z"
                   style="fill:none;stroke:#ffffff;stroke-width:2.26771;stroke-linecap:round;stroke-linejoin:round;stroke-miterlimit:4;stroke-dasharray:none;stroke-opacity:1"
                   id="path412" /></g></g></g></g></g></g></g></svg>
